<svg width="100" height="30" viewBox="0 0 100 30" fill="none" xmlns="http://www.w3.org/2000/svg">
<path d="M39.0624 21.2892C39.0624 22.2513 38.8092 23.0784 38.3028 23.7705C37.7964 24.4626 37.1212 24.9943 36.2772 25.3657C35.4501 25.737 34.5302 25.9227 33.5174 25.9227H24.934V7.94561H34.201C35.045 7.94561 35.7708 8.17348 36.3785 8.62924C36.9862 9.06812 37.4588 9.64204 37.7964 10.351C38.134 11.0599 38.3028 11.7858 38.3028 12.5285C38.3028 13.4062 38.075 14.2334 37.6192 15.0098C37.1803 15.7694 36.5473 16.3349 35.7202 16.7063C36.733 17.0101 37.5432 17.5671 38.1509 18.3774C38.7586 19.1707 39.0624 20.1413 39.0624 21.2892ZM27.7698 10.4016V15.6935H32.9857C33.6946 15.6935 34.2854 15.4487 34.7581 14.9592C35.2307 14.4528 35.467 13.8198 35.467 13.0602C35.467 12.2837 35.2476 11.6507 34.8087 11.1612C34.3698 10.6548 33.8128 10.4016 33.1376 10.4016H27.7698ZM36.1506 20.7574C36.1506 20.0147 35.9143 19.3649 35.4417 18.8078C34.9859 18.2508 34.4036 17.9723 33.6946 17.9723H27.7698V23.4667H33.5174C34.2601 23.4667 34.8847 23.205 35.3911 22.6817C35.8974 22.1416 36.1506 21.5002 36.1506 20.7574Z" fill="#220000"/>
<path d="M41.6907 7.43921H44.4759V22.0994C44.4759 22.7746 44.5772 23.205 44.7798 23.3907C44.9823 23.5764 45.2355 23.6692 45.5394 23.6692C45.877 23.6692 46.1977 23.6355 46.5015 23.5679C46.8053 23.5004 47.0585 23.416 47.2611 23.3147L47.6662 25.5176C47.2611 25.6864 46.78 25.8298 46.223 25.948C45.666 26.0662 45.168 26.1252 44.7291 26.1252C43.7839 26.1252 43.0411 25.8636 42.501 25.3403C41.9608 24.8002 41.6907 24.0575 41.6907 23.1122V7.43921Z" fill="#220000"/>
<path d="M55.2313 26.1759C53.8472 26.1759 52.6403 25.8636 51.6106 25.2391C50.5978 24.5976 49.8129 23.7621 49.2558 22.7324C48.6988 21.6858 48.4203 20.5464 48.4203 19.3142C48.4203 18.082 48.6988 16.951 49.2558 15.9214C49.8298 14.8748 50.6231 14.0392 51.6359 13.4147C52.6656 12.7733 53.864 12.4525 55.2313 12.4525C56.5986 12.4525 57.7886 12.7733 58.8014 13.4147C59.8311 14.0392 60.6244 14.8748 61.1815 15.9214C61.7554 16.951 62.0424 18.082 62.0424 19.3142C62.0424 20.5464 61.7638 21.6858 61.2068 22.7324C60.6498 23.7621 59.8564 24.5976 58.8267 25.2391C57.8139 25.8636 56.6155 26.1759 55.2313 26.1759ZM51.2814 19.3395C51.2814 20.1835 51.4587 20.9431 51.8131 21.6183C52.1676 22.2935 52.6403 22.8252 53.2311 23.2135C53.8218 23.6017 54.4886 23.7958 55.2313 23.7958C55.9572 23.7958 56.6155 23.6017 57.2063 23.2135C57.8139 22.8083 58.295 22.2682 58.6495 21.593C59.004 20.9178 59.1812 20.1582 59.1812 19.3142C59.1812 18.4702 59.004 17.7106 58.6495 17.0354C58.295 16.3602 57.8139 15.8285 57.2063 15.4403C56.6155 15.0352 55.9572 14.8326 55.2313 14.8326C54.5055 14.8326 53.8387 15.0352 53.2311 15.4403C52.6403 15.8285 52.1676 16.3687 51.8131 17.0607C51.4587 17.7359 51.2814 18.4955 51.2814 19.3395Z" fill="#220000"/>
<path d="M70.4628 26.1759C69.0786 26.1759 67.8717 25.8636 66.842 25.2391C65.8293 24.5976 65.0443 23.7621 64.4873 22.7324C63.9303 21.6858 63.6517 20.5464 63.6517 19.3142C63.6517 18.082 63.9303 16.951 64.4873 15.9214C65.0612 14.8748 65.8546 14.0392 66.8674 13.4147C67.897 12.7733 69.0955 12.4525 70.4628 12.4525C71.83 12.4525 73.0201 12.7733 74.0329 13.4147C75.0626 14.0392 75.8559 14.8748 76.4129 15.9214C76.9869 16.951 77.2738 18.082 77.2738 19.3142C77.2738 20.5464 76.9953 21.6858 76.4383 22.7324C75.8812 23.7621 75.0879 24.5976 74.0582 25.2391C73.0454 25.8636 71.8469 26.1759 70.4628 26.1759ZM66.5129 19.3395C66.5129 20.1835 66.6901 20.9431 67.0446 21.6183C67.3991 22.2935 67.8717 22.8252 68.4625 23.2135C69.0533 23.6017 69.7201 23.7958 70.4628 23.7958C71.1886 23.7958 71.8469 23.6017 72.4377 23.2135C73.0454 22.8083 73.5265 22.2682 73.881 21.593C74.2354 20.9178 74.4127 20.1582 74.4127 19.3142C74.4127 18.4702 74.2354 17.7106 73.881 17.0354C73.5265 16.3602 73.0454 15.8285 72.4377 15.4403C71.8469 15.0352 71.1886 14.8326 70.4628 14.8326C69.7369 14.8326 69.0702 15.0352 68.4625 15.4403C67.8717 15.8285 67.3991 16.3687 67.0446 17.0607C66.6901 17.7359 66.5129 18.4955 66.5129 19.3395Z" fill="#220000"/>
<path d="M99.9999 25.9227H97.2148V18.504C97.2148 17.2886 97.0122 16.394 96.6071 15.8201C96.202 15.2293 95.6112 14.9339 94.8347 14.9339C94.0582 14.9339 93.3324 15.2293 92.6572 15.8201C91.9989 16.394 91.5347 17.1451 91.2646 18.0735V25.9227H88.4794V18.504C88.4794 17.2549 88.2769 16.3518 87.8717 15.7948C87.4666 15.2208 86.8843 14.9339 86.1247 14.9339C85.3482 14.9339 84.6224 15.2208 83.9472 15.7948C83.2889 16.3687 82.8162 17.1198 82.5293 18.0482V25.9227H79.7441V12.6804H82.2761V15.339C82.7825 14.4106 83.4661 13.7016 84.327 13.2121C85.1878 12.7057 86.1669 12.4525 87.2641 12.4525C88.3613 12.4525 89.2221 12.7395 89.8467 13.3134C90.4881 13.8873 90.8848 14.6047 91.0367 15.4656C92.1846 13.4569 93.8472 12.4525 96.0247 12.4525C97.0713 12.4525 97.8815 12.7057 98.4554 13.2121C99.0294 13.7016 99.426 14.36 99.6455 15.1871C99.8818 15.9973 99.9999 16.8835 99.9999 17.8457V25.9227Z" fill="#220000"/>
<path d="M1.77227 29.5398H5.88529V22.07C5.88529 22.07 5.84245 20.8269 5.88529 20.0327C12.1362 16.1281 15.7922 5.26284 15.7922 0C1.23618 0 -1.59922 9.17608 0.720907 16.4277C1.77227 10.5499 2.83089 8.28923 7.50301 6.02853C5.67843 9.03025 4.48874 9.64565 2.83089 13.7149C2.27828 15.0713 2.10322 16.5999 1.77227 18.8444C1.44133 21.0888 1.77227 29.5398 1.77227 29.5398Z" fill="#076CAF"/>
<path d="M5.84136 29.5396C14.3178 28.4848 17.9349 21.299 17.9349 18.9898C8.44 14.6192 8.89214 20.9492 8.28929 23.5113C10.55 22.0042 10.7007 19.7434 15.3728 19.7434C12.5093 20.6477 7.48682 24.6914 5.84136 26.4769C5.29288 27.0721 2.08756 28.0334 1.75909 29.0182L5.84136 29.5396Z" fill="#076CAF"/>
</svg>
